<?xml version="1.0" encoding="utf-8"?>
<svg viewBox="129.645 67.419 167.729 159.659" xmlns="http://www.w3.org/2000/svg">
  <rect x="129.645" y="67.419" width="167.729" height="119.817" rx="16.709" ry="16.709"/>
  <rect x="131.418" y="82.386" width="165.105" height="8.03" style="fill: rgb(255, 255, 255); stroke-width: 0.304;"/>
  <line style="stroke-width: 5px; stroke-dasharray: 5px, 10px; stroke: rgb(255, 255, 255);" x1="138.138" y1="175.594" x2="138.138" y2="94.566"/>
  <line style="stroke-width: 5px; stroke-dasharray: 5px, 10px; stroke: rgb(255, 255, 255);" x1="290.532" y1="175.247" x2="290.532" y2="94.219"/>
  <rect x="209.855" y="-135.209" width="18.644" height="10.395" style="stroke-width: 0.646; fill: rgb(110, 105, 105);" transform="matrix(1, 0, 0, -1, 0, 0)"/>
  <rect x="209.65" y="-122.495" width="25.983" height="1.854" style="stroke-width: 0.209; fill: rgb(110, 105, 105);" transform="matrix(1, 0, 0, -1, 0, 0)"/>
  <path d="M 329.416 603.419 L 363.957 669.843 L 294.874 669.843 L 329.416 603.419 Z" style="stroke-width: 1.945; fill: rgb(255, 255, 255);" transform="matrix(0, 1, -1, 0, 864.648193, -196.338776)"/>
  <polyline style="stroke-width: 1.648; fill: rgb(66, 66, 66);" points="194.464 167.985 230.058 116.255 240.71 121.848 194.68 168.219"/>
  <path d="M 156.906 216.111 L 159.176 218.111 C 158.429 218.838 157.583 219.384 156.636 219.751 C 155.689 220.118 154.666 220.301 153.566 220.301 C 152.366 220.301 151.259 220.081 150.246 219.641 C 149.233 219.201 148.349 218.554 147.596 217.701 C 146.843 216.841 146.249 215.764 145.816 214.471 C 145.389 213.178 145.176 211.684 145.176 209.991 C 145.176 208.298 145.389 206.808 145.816 205.521 C 146.249 204.234 146.843 203.161 147.596 202.301 C 148.349 201.448 149.239 200.798 150.266 200.351 C 151.286 199.904 152.386 199.681 153.566 199.681 C 154.666 199.681 155.689 199.864 156.636 200.231 C 157.583 200.591 158.429 201.138 159.176 201.871 L 156.906 203.891 C 156.453 203.364 155.946 202.981 155.386 202.741 C 154.833 202.508 154.256 202.391 153.656 202.391 C 152.983 202.391 152.339 202.518 151.726 202.771 C 151.113 203.024 150.566 203.458 150.086 204.071 C 149.599 204.678 149.219 205.464 148.946 206.431 C 148.673 207.398 148.529 208.584 148.516 209.991 C 148.529 211.358 148.669 212.524 148.936 213.491 C 149.203 214.458 149.566 215.244 150.026 215.851 C 150.493 216.464 151.023 216.911 151.616 217.191 C 152.209 217.478 152.833 217.621 153.486 217.621 C 154.146 217.621 154.763 217.501 155.336 217.261 C 155.909 217.028 156.433 216.644 156.906 216.111 ZM 170.572 204.661 C 171.632 204.661 172.592 204.864 173.452 205.271 C 174.305 205.684 175.032 206.244 175.632 206.951 C 176.238 207.664 176.705 208.494 177.032 209.441 C 177.358 210.388 177.522 211.408 177.522 212.501 C 177.522 213.594 177.348 214.621 177.002 215.581 C 176.655 216.541 176.168 217.371 175.542 218.071 C 174.908 218.771 174.162 219.318 173.302 219.711 C 172.435 220.104 171.472 220.301 170.412 220.301 C 169.338 220.301 168.358 220.101 167.472 219.701 C 166.592 219.294 165.845 218.738 165.232 218.031 C 164.618 217.318 164.148 216.488 163.822 215.541 C 163.495 214.594 163.332 213.564 163.332 212.451 C 163.332 211.338 163.508 210.298 163.862 209.331 C 164.222 208.364 164.715 207.541 165.342 206.861 C 165.968 206.174 166.728 205.634 167.622 205.241 C 168.515 204.854 169.498 204.661 170.572 204.661 Z M 170.362 217.701 C 170.908 217.701 171.405 217.568 171.852 217.301 C 172.298 217.041 172.678 216.678 172.992 216.211 C 173.312 215.744 173.568 215.191 173.762 214.551 C 173.955 213.918 174.052 213.234 174.052 212.501 C 174.052 211.774 173.965 211.091 173.792 210.451 C 173.618 209.818 173.382 209.258 173.082 208.771 C 172.782 208.291 172.412 207.904 171.972 207.611 C 171.532 207.318 171.038 207.171 170.492 207.171 C 169.945 207.171 169.445 207.308 168.992 207.581 C 168.538 207.854 168.152 208.224 167.832 208.691 C 167.512 209.158 167.265 209.704 167.092 210.331 C 166.918 210.958 166.832 211.638 166.832 212.371 C 166.832 213.098 166.908 213.784 167.062 214.431 C 167.215 215.078 167.448 215.638 167.762 216.111 C 168.068 216.584 168.438 216.968 168.872 217.261 C 169.298 217.554 169.795 217.701 170.362 217.701 ZM 182.851 218.601 C 182.158 217.821 181.648 216.854 181.321 215.701 C 180.994 214.554 180.831 213.398 180.831 212.231 C 180.831 210.811 181.028 209.618 181.421 208.651 C 181.808 207.684 182.311 206.901 182.931 206.301 C 183.551 205.694 184.241 205.261 185.001 205.001 C 185.754 204.734 186.498 204.601 187.231 204.601 C 188.124 204.601 188.938 204.758 189.671 205.071 C 190.411 205.378 190.964 205.788 191.331 206.301 L 191.331 198.911 L 194.661 198.911 L 194.661 220.161 L 191.521 220.161 C 191.481 219.854 191.448 219.541 191.421 219.221 C 191.394 218.901 191.364 218.604 191.331 218.331 C 191.278 218.564 191.118 218.801 190.851 219.041 C 190.584 219.274 190.248 219.488 189.841 219.681 C 189.428 219.874 188.968 220.024 188.461 220.131 C 187.948 220.244 187.418 220.301 186.871 220.301 C 186.144 220.301 185.428 220.171 184.721 219.911 C 184.021 219.658 183.398 219.221 182.851 218.601 Z M 184.331 212.481 C 184.331 213.208 184.421 213.884 184.601 214.511 C 184.781 215.144 185.028 215.698 185.341 216.171 C 185.648 216.644 186.024 217.018 186.471 217.291 C 186.918 217.564 187.408 217.701 187.941 217.701 C 188.501 217.701 189.004 217.561 189.451 217.281 C 189.898 216.994 190.278 216.614 190.591 216.141 C 190.898 215.668 191.134 215.111 191.301 214.471 C 191.468 213.838 191.551 213.154 191.551 212.421 C 191.551 211.694 191.464 211.011 191.291 210.371 C 191.118 209.731 190.871 209.174 190.551 208.701 C 190.231 208.228 189.848 207.851 189.401 207.571 C 188.954 207.284 188.448 207.141 187.881 207.141 C 187.314 207.141 186.814 207.284 186.381 207.571 C 185.941 207.851 185.571 208.238 185.271 208.731 C 184.971 209.224 184.738 209.791 184.571 210.431 C 184.411 211.064 184.331 211.748 184.331 212.481 ZM 205.786 204.571 C 207.026 204.571 208.123 204.824 209.076 205.331 C 210.023 205.831 210.8 206.494 211.406 207.321 C 212.02 208.154 212.46 209.111 212.726 210.191 C 212.986 211.278 213.036 212.404 212.876 213.571 L 202.156 213.571 C 202.156 214.158 202.266 214.694 202.486 215.181 C 202.7 215.674 202.993 216.098 203.366 216.451 C 203.746 216.811 204.193 217.091 204.706 217.291 C 205.226 217.491 205.79 217.591 206.396 217.591 C 206.596 217.591 206.846 217.568 207.146 217.521 C 207.446 217.474 207.766 217.394 208.106 217.281 C 208.44 217.161 208.776 217.008 209.116 216.821 C 209.45 216.641 209.746 216.424 210.006 216.171 L 211.206 218.001 C 210.606 218.748 209.903 219.314 209.096 219.701 C 208.296 220.081 207.276 220.271 206.036 220.271 C 205.036 220.271 204.096 220.064 203.216 219.651 C 202.343 219.244 201.596 218.684 200.976 217.971 C 200.356 217.264 199.866 216.434 199.506 215.481 C 199.14 214.534 198.956 213.514 198.956 212.421 C 198.956 211.348 199.14 210.331 199.506 209.371 C 199.866 208.418 200.353 207.584 200.966 206.871 C 201.573 206.158 202.296 205.598 203.136 205.191 C 203.976 204.778 204.86 204.571 205.786 204.571 Z M 202.266 211.161 L 209.806 211.161 C 209.806 210.674 209.716 210.191 209.536 209.711 C 209.356 209.238 209.106 208.811 208.786 208.431 C 208.466 208.051 208.08 207.744 207.626 207.511 C 207.166 207.284 206.673 207.161 206.146 207.141 C 205.58 207.141 205.06 207.251 204.586 207.471 C 204.113 207.691 203.703 207.984 203.356 208.351 C 203.01 208.711 202.74 209.144 202.546 209.651 C 202.36 210.151 202.266 210.654 202.266 211.161 ZM 220.91 212.891 L 220.91 220.161 L 217.63 220.161 L 217.63 200.011 L 223.43 200.011 C 224.284 200.011 225.13 200.148 225.97 200.421 C 226.81 200.694 227.56 201.104 228.22 201.651 C 228.887 202.198 229.427 202.858 229.84 203.631 C 230.247 204.404 230.45 205.274 230.45 206.241 C 230.45 207.261 230.277 208.188 229.93 209.021 C 229.584 209.848 229.1 210.544 228.48 211.111 C 227.86 211.678 227.114 212.114 226.24 212.421 C 225.367 212.734 224.4 212.891 223.34 212.891 L 220.91 212.891 Z M 223.37 202.501 L 220.91 202.501 L 220.91 210.481 L 223.92 210.481 C 224.32 210.481 224.717 210.414 225.11 210.281 C 225.497 210.141 225.857 209.918 226.19 209.611 C 226.517 209.298 226.78 208.864 226.98 208.311 C 227.18 207.751 227.28 207.061 227.28 206.241 C 227.28 205.914 227.234 205.538 227.14 205.111 C 227.054 204.678 226.867 204.268 226.58 203.881 C 226.3 203.488 225.904 203.158 225.39 202.891 C 224.884 202.631 224.21 202.501 223.37 202.501 ZM 237.311 198.911 L 237.311 215.461 C 237.311 216.081 237.395 216.568 237.561 216.921 C 237.728 217.274 237.955 217.538 238.241 217.711 C 238.535 217.884 238.868 217.998 239.241 218.051 C 239.615 218.111 240.021 218.141 240.461 218.141 L 240.461 220.161 C 240.221 220.194 239.975 220.221 239.721 220.241 C 239.521 220.261 239.285 220.274 239.011 220.281 C 238.738 220.294 238.465 220.301 238.191 220.301 C 237.918 220.301 237.645 220.291 237.371 220.271 C 237.098 220.251 236.851 220.224 236.631 220.191 C 236.011 220.064 235.528 219.791 235.181 219.371 C 234.835 218.951 234.571 218.481 234.391 217.961 C 234.205 217.441 234.091 216.934 234.051 216.441 C 234.005 215.948 233.981 215.564 233.981 215.291 L 233.981 214.961 L 233.981 198.911 L 237.311 198.911 ZM 255.146 211.821 L 255.146 215.371 L 255.146 215.591 C 255.146 215.738 255.153 215.954 255.166 216.241 C 255.186 216.521 255.223 216.808 255.276 217.101 C 255.329 217.388 255.416 217.651 255.536 217.891 C 255.656 218.131 255.816 218.288 256.016 218.361 L 255.146 220.191 C 254.906 220.191 254.653 220.134 254.386 220.021 C 254.126 219.914 253.873 219.761 253.626 219.561 C 253.379 219.361 253.169 219.138 252.996 218.891 C 252.823 218.644 252.689 218.374 252.596 218.081 C 252.469 218.394 252.246 218.681 251.926 218.941 C 251.606 219.208 251.246 219.444 250.846 219.651 C 250.446 219.864 250.013 220.024 249.546 220.131 C 249.086 220.244 248.653 220.301 248.246 220.301 C 247.626 220.301 247.029 220.218 246.456 220.051 C 245.883 219.884 245.379 219.621 244.946 219.261 C 244.506 218.894 244.163 218.411 243.916 217.811 C 243.669 217.211 243.546 216.471 243.546 215.591 C 243.546 214.758 243.723 214.034 244.076 213.421 C 244.436 212.808 244.893 212.308 245.446 211.921 C 246.006 211.528 246.639 211.234 247.346 211.041 C 248.059 210.848 248.779 210.751 249.506 210.751 L 251.836 210.751 C 251.836 209.858 251.789 209.148 251.696 208.621 C 251.603 208.094 251.449 207.708 251.236 207.461 C 251.016 207.214 250.746 207.058 250.426 206.991 C 250.106 206.931 249.726 206.901 249.286 206.901 C 248.886 206.901 248.509 206.951 248.156 207.051 C 247.803 207.151 247.473 207.268 247.166 207.401 C 246.866 207.541 246.603 207.694 246.376 207.861 C 246.149 208.021 245.983 208.148 245.876 208.241 L 244.646 206.351 C 244.826 206.151 245.099 205.948 245.466 205.741 C 245.826 205.528 246.243 205.341 246.716 205.181 C 247.189 205.014 247.706 204.881 248.266 204.781 C 248.819 204.681 249.396 204.631 249.996 204.631 C 250.543 204.631 251.076 204.684 251.596 204.791 C 252.116 204.904 252.593 205.088 253.026 205.341 C 253.453 205.594 253.826 205.938 254.146 206.371 C 254.466 206.798 254.689 207.328 254.816 207.961 C 254.943 208.601 255.029 209.244 255.076 209.891 C 255.123 210.538 255.146 211.181 255.146 211.821 Z M 251.856 216.471 L 251.856 212.701 L 250.106 212.701 C 249.746 212.701 249.366 212.734 248.966 212.801 C 248.559 212.874 248.183 213.011 247.836 213.211 C 247.489 213.418 247.203 213.708 246.976 214.081 C 246.749 214.454 246.636 214.931 246.636 215.511 C 246.636 216.424 246.843 217.081 247.256 217.481 C 247.663 217.881 248.259 218.081 249.046 218.081 C 249.593 218.081 250.116 217.934 250.616 217.641 C 251.116 217.354 251.529 216.964 251.856 216.471 ZM 271.9 204.741 L 275.24 204.741 C 274.234 207.421 273.34 209.794 272.56 211.861 C 271.774 213.928 271.09 215.741 270.51 217.301 C 269.924 218.861 269.407 220.178 268.96 221.251 C 268.514 222.331 268.104 223.231 267.73 223.951 C 267.357 224.671 267.007 225.234 266.68 225.641 C 266.354 226.054 266.017 226.371 265.67 226.591 C 265.324 226.804 264.944 226.934 264.53 226.981 C 264.124 227.028 263.654 227.051 263.12 227.051 C 262.96 227.051 262.77 227.028 262.55 226.981 C 262.33 226.934 262.117 226.881 261.91 226.821 C 261.697 226.754 261.51 226.691 261.35 226.631 C 261.184 226.564 261.074 226.521 261.02 226.501 C 261.094 226.174 261.167 225.864 261.24 225.571 C 261.294 225.318 261.35 225.078 261.41 224.851 C 261.477 224.624 261.527 224.464 261.56 224.371 C 261.707 224.371 261.93 224.418 262.23 224.511 C 262.537 224.598 262.76 224.641 262.9 224.641 C 263.194 224.641 263.454 224.628 263.68 224.601 C 263.914 224.574 264.12 224.494 264.3 224.361 C 264.48 224.221 264.654 224.021 264.82 223.761 C 264.98 223.494 265.164 223.114 265.37 222.621 L 266.4 220.161 L 260.09 204.741 L 263.4 204.741 L 267.91 216.611 L 271.9 204.741 ZM 289.923 211.821 L 289.923 215.371 L 289.923 215.591 C 289.923 215.738 289.93 215.954 289.943 216.241 C 289.963 216.521 290 216.808 290.053 217.101 C 290.106 217.388 290.193 217.651 290.313 217.891 C 290.433 218.131 290.593 218.288 290.793 218.361 L 289.923 220.191 C 289.683 220.191 289.43 220.134 289.163 220.021 C 288.903 219.914 288.65 219.761 288.403 219.561 C 288.156 219.361 287.946 219.138 287.773 218.891 C 287.6 218.644 287.466 218.374 287.373 218.081 C 287.246 218.394 287.023 218.681 286.703 218.941 C 286.383 219.208 286.023 219.444 285.623 219.651 C 285.223 219.864 284.79 220.024 284.323 220.131 C 283.863 220.244 283.43 220.301 283.023 220.301 C 282.403 220.301 281.806 220.218 281.233 220.051 C 280.66 219.884 280.156 219.621 279.723 219.261 C 279.283 218.894 278.94 218.411 278.693 217.811 C 278.446 217.211 278.323 216.471 278.323 215.591 C 278.323 214.758 278.5 214.034 278.853 213.421 C 279.213 212.808 279.67 212.308 280.223 211.921 C 280.783 211.528 281.416 211.234 282.123 211.041 C 282.836 210.848 283.556 210.751 284.283 210.751 L 286.613 210.751 C 286.613 209.858 286.566 209.148 286.473 208.621 C 286.38 208.094 286.226 207.708 286.013 207.461 C 285.793 207.214 285.523 207.058 285.203 206.991 C 284.883 206.931 284.503 206.901 284.063 206.901 C 283.663 206.901 283.286 206.951 282.933 207.051 C 282.58 207.151 282.25 207.268 281.943 207.401 C 281.643 207.541 281.38 207.694 281.153 207.861 C 280.926 208.021 280.76 208.148 280.653 208.241 L 279.423 206.351 C 279.603 206.151 279.876 205.948 280.243 205.741 C 280.603 205.528 281.02 205.341 281.493 205.181 C 281.966 205.014 282.483 204.881 283.043 204.781 C 283.596 204.681 284.173 204.631 284.773 204.631 C 285.32 204.631 285.853 204.684 286.373 204.791 C 286.893 204.904 287.37 205.088 287.803 205.341 C 288.23 205.594 288.603 205.938 288.923 206.371 C 289.243 206.798 289.466 207.328 289.593 207.961 C 289.72 208.601 289.806 209.244 289.853 209.891 C 289.9 210.538 289.923 211.181 289.923 211.821 Z M 286.633 216.471 L 286.633 212.701 L 284.883 212.701 C 284.523 212.701 284.143 212.734 283.743 212.801 C 283.336 212.874 282.96 213.011 282.613 213.211 C 282.266 213.418 281.98 213.708 281.753 214.081 C 281.526 214.454 281.413 214.931 281.413 215.511 C 281.413 216.424 281.62 217.081 282.033 217.481 C 282.44 217.881 283.036 218.081 283.823 218.081 C 284.37 218.081 284.893 217.934 285.393 217.641 C 285.893 217.354 286.306 216.964 286.633 216.471 Z" transform="matrix(1, 0, 0, 1, 0, 0)" style="fill: rgb(255, 255, 255); white-space: pre;"/>
</svg>