<?xml version="1.0" encoding="utf-8"?>
<svg viewBox="129.645 67.419 167.729 151.894" xmlns="http://www.w3.org/2000/svg">
  <rect x="129.645" y="67.419" width="167.729" height="119.817" style="fill: rgb(247, 84, 43);" rx="16.709" ry="16.709"/>
  <rect x="131.418" y="82.386" width="165.105" height="8.03" style="fill: rgb(255, 255, 255); stroke-width: 0.304;"/>
  <line style="stroke-width: 5px; stroke-dasharray: 5px, 10px; stroke: rgb(255, 255, 255);" x1="138.138" y1="175.594" x2="138.138" y2="94.566"/>
  <line style="stroke-width: 5px; stroke-dasharray: 5px, 10px; stroke: rgb(255, 255, 255);" x1="290.532" y1="175.247" x2="290.532" y2="94.219"/>
  <g transform="matrix(1, 0, 0, 1.066699, 0, -6.617021)">
    <rect x="158.544" y="99.207" width="101.729" height="9.644" style="fill: none; stroke: rgb(255, 255, 255);"/>
    <rect x="158.517" y="113.364" width="36.856" height="25.863" style="fill: none; stroke: rgb(255, 255, 255);"/>
    <rect x="158.112" y="144.995" width="51.365" height="4.613" style="fill: none; stroke: rgb(255, 255, 255);"/>
    <rect x="158.065" y="158.325" width="101.729" height="9.644" style="fill: none; stroke: rgb(255, 255, 255);"/>
    <rect x="209.868" y="-140.899" width="51.46" height="3.874" style="fill: none; stroke: rgb(255, 255, 255);" transform="matrix(1, 0, 0, -1, 0, 0)"/>
    <rect x="209.626" y="-117.138" width="51.46" height="3.874" style="fill: none; stroke: rgb(255, 255, 255);" transform="matrix(1, 0, 0, -1, 0, 0)"/>
  </g>
  <rect x="209.855" y="-135.209" width="18.644" height="10.395" style="stroke-width: 0.646; fill: rgb(110, 105, 105);" transform="matrix(1, 0, 0, -1, 0, 0)"/>
  <rect x="209.65" y="-122.495" width="25.983" height="1.854" style="stroke-width: 0.209; fill: rgb(110, 105, 105);" transform="matrix(1, 0, 0, -1, 0, 0)"/>
  <path d="M 329.416 603.419 L 363.957 669.843 L 294.874 669.843 L 329.416 603.419 Z" style="stroke-width: 1.945; fill: rgb(10, 153, 255);" transform="matrix(0, 1, -1, 0, 864.648193, -196.338776)"/>
  <polyline style="fill: rgb(255, 255, 255); stroke-width: 1.648;" points="194.464 167.985 230.058 116.255 240.71 121.848 194.68 168.219"/>
  <path d="M 145.576 210.619 L 145.576 196.619 C 145.576 196.232 145.646 195.869 145.786 195.529 C 145.933 195.189 146.136 194.892 146.396 194.639 C 146.649 194.392 146.946 194.192 147.286 194.039 C 147.626 193.886 147.989 193.809 148.376 193.809 L 159.016 193.809 C 159.396 193.809 159.756 193.886 160.096 194.039 C 160.436 194.192 160.736 194.392 160.996 194.639 C 161.249 194.892 161.449 195.189 161.596 195.529 C 161.743 195.869 161.816 196.232 161.816 196.619 L 161.816 199.149 L 159.016 199.149 L 159.016 196.619 L 148.376 196.619 L 148.376 210.619 L 159.016 210.619 L 159.016 208.099 L 161.816 208.099 L 161.816 210.619 C 161.816 210.999 161.743 211.359 161.596 211.699 C 161.449 212.046 161.249 212.346 160.996 212.599 C 160.736 212.852 160.436 213.052 160.096 213.199 C 159.756 213.346 159.396 213.419 159.016 213.419 L 148.376 213.419 C 147.989 213.419 147.626 213.346 147.286 213.199 C 146.946 213.052 146.649 212.852 146.396 212.599 C 146.136 212.346 145.933 212.046 145.786 211.699 C 145.646 211.359 145.576 210.999 145.576 210.619 ZM 178.61 201.549 L 178.61 210.729 C 178.61 211.102 178.54 211.452 178.4 211.779 C 178.26 212.106 178.07 212.389 177.83 212.629 C 177.59 212.876 177.307 213.069 176.98 213.209 C 176.653 213.349 176.303 213.419 175.93 213.419 L 168.7 213.419 C 168.34 213.419 167.993 213.349 167.66 213.209 C 167.333 213.069 167.05 212.876 166.81 212.629 C 166.57 212.389 166.377 212.106 166.23 211.779 C 166.09 211.452 166.02 211.102 166.02 210.729 L 166.02 201.549 C 166.02 201.176 166.09 200.826 166.23 200.499 C 166.377 200.172 166.57 199.889 166.81 199.649 C 167.05 199.402 167.333 199.209 167.66 199.069 C 167.993 198.929 168.34 198.859 168.7 198.859 L 175.93 198.859 C 176.303 198.859 176.653 198.929 176.98 199.069 C 177.307 199.209 177.59 199.402 177.83 199.649 C 178.07 199.889 178.26 200.172 178.4 200.499 C 178.54 200.826 178.61 201.176 178.61 201.549 Z M 175.93 201.549 L 168.7 201.549 L 168.7 210.729 L 175.93 210.729 L 175.93 201.549 ZM 183.094 210.729 L 183.094 201.549 C 183.094 201.176 183.164 200.826 183.304 200.499 C 183.451 200.172 183.644 199.889 183.884 199.649 C 184.124 199.402 184.408 199.209 184.734 199.069 C 185.068 198.929 185.414 198.859 185.774 198.859 L 193.284 198.859 L 193.284 193.249 L 195.974 193.249 L 195.974 213.419 L 193.284 213.419 L 193.284 210.959 C 193.258 211.292 193.164 211.612 193.004 211.919 C 192.851 212.219 192.654 212.479 192.414 212.699 C 192.174 212.926 191.898 213.102 191.584 213.229 C 191.278 213.356 190.951 213.419 190.604 213.419 L 185.774 213.419 C 185.414 213.419 185.068 213.349 184.734 213.209 C 184.408 213.069 184.124 212.876 183.884 212.629 C 183.644 212.389 183.451 212.106 183.304 211.779 C 183.164 211.452 183.094 211.102 183.094 210.729 Z M 185.774 201.549 L 185.774 210.729 L 193.284 210.729 L 193.284 201.549 L 185.774 201.549 ZM 212.776 201.549 L 212.776 207.509 L 203.136 207.509 L 203.136 210.729 L 212.776 210.729 L 212.776 213.419 L 203.136 213.419 C 202.776 213.419 202.429 213.349 202.096 213.209 C 201.769 213.069 201.486 212.876 201.246 212.629 C 201.006 212.389 200.812 212.106 200.666 211.779 C 200.526 211.452 200.456 211.102 200.456 210.729 L 200.456 201.549 C 200.456 201.176 200.526 200.826 200.666 200.499 C 200.812 200.172 201.006 199.889 201.246 199.649 C 201.486 199.402 201.769 199.209 202.096 199.069 C 202.429 198.929 202.776 198.859 203.136 198.859 L 210.086 198.859 C 210.459 198.859 210.809 198.929 211.136 199.069 C 211.462 199.209 211.746 199.402 211.986 199.649 C 212.232 199.889 212.426 200.172 212.566 200.499 C 212.706 200.826 212.776 201.176 212.776 201.549 Z M 210.086 201.549 L 203.136 201.549 L 203.136 204.819 L 210.086 204.819 L 210.086 201.549 ZM 220.336 213.419 L 217.536 213.419 L 217.536 193.809 L 228.266 193.809 C 231.44 193.809 233.026 195.402 233.026 198.589 L 233.026 201.379 C 233.026 204.559 231.44 206.149 228.266 206.149 L 220.336 206.149 L 220.336 213.419 Z M 220.336 196.619 L 220.336 203.339 L 228.116 203.339 C 228.863 203.339 229.4 203.176 229.726 202.849 C 230.053 202.522 230.216 201.986 230.216 201.239 L 230.216 198.719 C 230.216 197.972 230.053 197.436 229.726 197.109 C 229.4 196.782 228.863 196.619 228.116 196.619 L 220.336 196.619 ZM 236.654 193.249 L 239.334 193.249 L 239.334 213.419 L 236.654 213.419 L 236.654 193.249 ZM 243.818 210.729 L 243.818 207.059 C 243.818 206.686 243.888 206.339 244.028 206.019 C 244.174 205.692 244.368 205.406 244.608 205.159 C 244.848 204.912 245.131 204.719 245.458 204.579 C 245.791 204.439 246.138 204.369 246.498 204.369 L 253.448 204.369 L 253.448 201.549 L 244.658 201.549 L 244.658 198.859 L 253.448 198.859 C 253.821 198.859 254.171 198.929 254.498 199.069 C 254.824 199.209 255.108 199.402 255.348 199.649 C 255.594 199.889 255.788 200.172 255.928 200.499 C 256.068 200.826 256.138 201.176 256.138 201.549 L 256.138 213.419 L 253.448 213.419 L 253.448 210.959 C 253.421 211.292 253.328 211.612 253.168 211.919 C 253.014 212.219 252.818 212.479 252.578 212.699 C 252.338 212.926 252.061 213.102 251.748 213.229 C 251.441 213.356 251.114 213.419 250.768 213.419 L 246.498 213.419 C 246.138 213.419 245.791 213.349 245.458 213.209 C 245.131 213.069 244.848 212.876 244.608 212.629 C 244.368 212.389 244.174 212.106 244.028 211.779 C 243.888 211.452 243.818 211.102 243.818 210.729 Z M 246.498 207.059 L 246.498 210.729 L 253.448 210.729 L 253.448 207.059 L 246.498 207.059 ZM 264.288 219.299 L 261.608 219.299 L 264.658 212.109 L 258.938 198.859 L 261.768 198.859 L 266.018 208.879 L 270.268 198.859 L 273.098 198.859 L 264.288 219.299 ZM 275.902 210.729 L 275.902 207.059 C 275.902 206.686 275.972 206.339 276.112 206.019 C 276.258 205.692 276.452 205.406 276.692 205.159 C 276.932 204.912 277.215 204.719 277.542 204.579 C 277.875 204.439 278.222 204.369 278.582 204.369 L 285.532 204.369 L 285.532 201.549 L 276.742 201.549 L 276.742 198.859 L 285.532 198.859 C 285.905 198.859 286.255 198.929 286.582 199.069 C 286.908 199.209 287.192 199.402 287.432 199.649 C 287.678 199.889 287.872 200.172 288.012 200.499 C 288.152 200.826 288.222 201.176 288.222 201.549 L 288.222 213.419 L 285.532 213.419 L 285.532 210.959 C 285.505 211.292 285.412 211.612 285.252 211.919 C 285.098 212.219 284.902 212.479 284.662 212.699 C 284.422 212.926 284.145 213.102 283.832 213.229 C 283.525 213.356 283.198 213.419 282.852 213.419 L 278.582 213.419 C 278.222 213.419 277.875 213.349 277.542 213.209 C 277.215 213.069 276.932 212.876 276.692 212.629 C 276.452 212.389 276.258 212.106 276.112 211.779 C 275.972 211.452 275.902 211.102 275.902 210.729 Z M 278.582 207.059 L 278.582 210.729 L 285.532 210.729 L 285.532 207.059 L 278.582 207.059 Z" transform="matrix(1, 0, 0, 1, 0, 0)" style="fill: rgb(255, 255, 255); white-space: pre;"/>
</svg>